<svg version="1.1" id="Layer_1" xmlns="http://www.w3.org/2000/svg" xmlns:xlink="http://www.w3.org/1999/xlink" x="0px" y="0px"
	 width="100%" viewBox="0 0 300 300" enable-background="new 0 0 300 300" xml:space="preserve">
<path fill="#FEFEFE" opacity="1.000000" stroke="none" 
	d="
M301.000000,106.000000 
	C301.000000,171.333328 301.000000,236.166641 301.000000,301.000000 
	C201.000031,301.000000 101.000061,301.000000 1.000066,301.000000 
	C1.000044,201.000046 1.000044,101.000092 1.000022,1.000107 
	C100.999939,1.000071 200.999878,1.000071 300.999908,1.000036 
	C301.000000,35.833332 301.000000,70.666664 301.000000,106.000000 
M246.023529,83.500061 
	C245.976791,68.671303 246.097198,53.839493 245.825851,39.014851 
	C245.637985,28.751663 240.861221,22.252865 232.436630,20.335247 
	C228.905884,19.531576 225.217850,19.074282 221.598770,19.058903 
	C196.604950,18.952696 171.591980,18.431938 146.623642,19.237400 
	C133.292374,19.667459 119.791924,21.419514 106.803780,24.445883 
	C85.028328,29.519779 69.635193,43.229237 63.189934,64.749870 
	C53.797043,96.112587 54.040676,128.052429 61.962425,159.712769 
	C68.081596,184.168869 84.643448,198.800354 108.847626,204.257889 
	C136.664658,210.530060 164.711655,210.465927 192.610855,204.376221 
	C205.898514,201.475861 217.733932,195.586533 226.944214,185.247406 
	C239.195724,171.494324 243.588364,154.581665 244.771851,136.927505 
	C245.940033,119.502052 245.666107,101.979919 246.023529,83.500061 
M140.851135,277.852814 
	C146.055359,277.185211 151.462006,277.176331 156.404587,275.657349 
	C160.979721,274.251312 162.970428,268.678375 161.665146,264.000610 
	C160.420776,259.541077 156.785950,259.099701 152.951065,259.124176 
	C149.958847,259.143280 146.951859,259.316162 143.981537,259.064880 
	C142.825333,258.967041 141.751617,257.893951 140.615173,257.250885 
	C146.352951,255.699097 151.964142,255.330673 156.223816,252.740021 
	C161.605911,249.466782 160.948105,243.546219 158.518936,238.086990 
	C160.291046,237.785263 161.694687,237.546280 162.996445,237.324646 
	C162.996445,234.574173 162.996445,232.195099 162.996445,229.674469 
	C156.629456,229.674469 150.656357,229.664856 144.683365,229.685577 
	C143.856537,229.688446 143.026566,229.814789 142.204254,229.928589 
	C132.511642,231.270248 127.580467,239.063919 131.104248,247.804657 
	C131.984482,249.988037 133.708862,251.831085 135.023926,253.798584 
	C128.347321,259.236389 128.108780,260.953003 132.997650,266.998077 
	C128.925568,272.766510 129.999496,275.562775 137.017410,277.371063 
	C137.972885,277.617279 138.974945,277.682648 140.851135,277.852814 
M54.249733,252.069916 
	C54.757015,254.505386 55.129055,256.978699 55.798092,259.368896 
	C57.497601,265.440491 62.352329,268.718811 68.164154,267.422241 
	C70.639801,266.869965 72.914772,265.418152 73.970512,264.952759 
	C77.960938,266.014557 80.850266,267.068787 83.825409,267.445923 
	C85.166443,267.615875 87.692230,266.697327 87.918762,265.818542 
	C88.542778,263.397705 88.516487,260.702698 88.206863,258.182556 
	C87.972794,256.277344 86.375381,254.493866 86.306679,252.622375 
	C86.062546,245.971512 86.213478,239.306168 86.214195,232.646301 
	C86.214714,227.898087 86.214294,223.149887 86.214294,218.392105 
	C81.697937,218.392105 77.949997,218.392105 73.766312,218.392105 
	C73.766312,222.685410 73.766312,226.732269 73.766312,230.850418 
	C61.340763,228.225098 56.734577,231.376511 54.651215,243.733810 
	C54.240376,246.170654 54.354065,248.695923 54.249733,252.069916 
M124.894577,238.571411 
	C124.894577,236.123199 124.894577,233.675003 124.894577,230.819916 
	C120.367958,230.819916 116.344635,230.819916 112.098961,230.819916 
	C112.098961,238.511047 112.235321,245.809250 111.965553,253.092407 
	C111.920273,254.314713 110.116707,255.471909 109.125580,256.659180 
	C108.044319,255.718369 106.664589,254.951782 105.980186,253.779312 
	C105.471176,252.907303 105.855545,251.509338 105.855064,250.345642 
	C105.852432,243.922699 105.853806,237.499756 105.853806,230.994263 
	C101.164543,230.994263 97.099556,230.994263 92.952263,230.994263 
	C92.952263,239.351120 92.944618,247.326416 92.954094,255.301682 
	C92.967667,266.727448 98.422920,270.320679 108.876884,265.846893 
	C109.822731,265.442108 110.952431,265.057800 111.923637,265.192169 
	C116.103165,265.770630 120.255386,266.546356 124.894951,267.330963 
	C124.894951,257.145660 124.894951,248.348816 124.894577,238.571411 
M185.722504,229.802872 
	C182.074493,229.954681 178.360062,229.720535 174.791565,230.334488 
	C165.956909,231.854492 165.697189,232.477325 167.883987,241.536652 
	C167.916992,241.673462 168.082428,241.778290 168.436752,242.187683 
	C170.968048,241.752182 173.684143,241.144424 176.433792,240.851013 
	C179.223450,240.553314 182.244705,240.224274 182.783798,244.995941 
	C179.483688,245.596344 176.230179,246.023712 173.065094,246.807968 
	C169.527222,247.684586 166.341339,249.493408 165.962677,253.478195 
	C165.661392,256.648621 165.558945,260.174377 166.640015,263.067078 
	C168.655640,268.460449 175.004456,268.729431 182.851791,264.840546 
	C186.609604,265.925751 189.487778,267.059448 192.466064,267.474304 
	C193.730850,267.650452 196.123734,266.584259 196.400894,265.621338 
	C197.054367,263.350983 197.092331,260.749725 196.726028,258.383484 
	C196.370239,256.085205 194.682541,253.953934 194.502426,251.676361 
	C194.189316,247.716736 194.674149,243.700775 194.665543,239.708771 
	C194.651901,233.386734 192.987473,231.454437 185.722504,229.802872 
M234.742432,230.969452 
	C226.111115,234.273712 225.089676,244.471405 226.408798,254.764725 
	C226.974838,259.181671 228.575592,263.098053 232.692764,265.500366 
	C240.009430,269.769531 251.758392,267.554932 255.569626,261.173798 
	C260.691284,252.598541 258.605408,235.716187 251.870300,231.725815 
	C250.615982,230.982651 249.138031,230.152832 247.766632,230.158615 
	C243.679642,230.175781 239.594345,230.588806 234.742432,230.969452 
M44.054440,266.741913 
	C45.453758,266.333496 46.853077,265.925049 48.593914,265.416962 
	C48.215141,262.441772 47.874397,259.765320 47.528297,257.046783 
	C35.664444,259.539673 32.606567,258.543304 32.107525,251.849182 
	C35.091824,251.849182 38.051071,251.849182 41.010319,251.849182 
	C43.921009,251.849182 46.831699,251.849182 49.933804,251.849182 
	C50.115234,248.772720 50.341270,246.467270 50.371174,244.159271 
	C50.480045,235.756683 47.157276,231.131027 40.266239,229.965256 
	C30.520123,228.316483 22.471355,231.964615 20.214951,239.523285 
	C16.096405,253.319901 20.289705,271.608459 42.239498,266.895874 
	C42.561264,266.826813 42.901356,266.843048 44.054440,266.741913 
M203.708786,254.479538 
	C202.702438,267.080963 206.696014,269.691833 222.163681,266.182770 
	C222.305145,263.494476 222.450714,260.728027 222.545807,258.920746 
	C219.885239,257.415741 216.530655,256.534515 216.365463,255.244812 
	C215.727066,250.260254 216.106125,245.145370 216.106125,240.102631 
	C218.664307,239.900421 220.443787,239.759766 222.599030,239.589417 
	C222.804916,236.670929 222.995590,233.968018 223.226608,230.693268 
	C216.495331,232.660446 215.486359,229.127701 216.136963,224.165436 
	C212.206497,224.165436 208.645050,224.165436 204.935593,224.165436 
	C204.554932,226.503784 204.213776,228.599548 203.853394,230.813278 
	C202.501160,230.969116 201.264786,231.111603 199.524567,231.312149 
	C199.903595,234.328323 199.610291,239.038483 200.694199,239.380203 
	C205.010727,240.741058 203.592758,243.504578 203.532104,246.170120 
	C203.475372,248.663574 203.612366,251.161423 203.708786,254.479538 
M263.092804,246.502853 
	C263.092804,253.106400 263.092804,259.709930 263.092804,266.419495 
	C267.586792,266.419495 271.606293,266.419495 275.897003,266.419495 
	C275.897003,259.552765 275.965637,253.080643 275.869324,246.610992 
	C275.817657,243.141190 277.115143,241.242996 280.797211,241.376953 
	C281.919861,241.417786 283.050873,241.228897 284.677948,241.108109 
	C284.869598,237.222549 285.050171,233.561951 285.185303,230.822632 
	C279.786835,230.822632 275.088257,230.840851 270.389984,230.809662 
	C269.232239,230.801971 268.011993,230.837006 266.930634,230.499527 
	C264.027771,229.593582 262.966095,230.470108 263.108704,233.542419 
	C263.293457,237.521362 263.121277,241.516907 263.092804,246.502853 
z"/>
<path fill="#6A0CEA" opacity="1.000000" stroke="none" 
	d="
M246.024185,84.000130 
	C245.666107,101.979919 245.940033,119.502052 244.771851,136.927505 
	C243.588364,154.581665 239.195724,171.494324 226.944214,185.247406 
	C217.733932,195.586533 205.898514,201.475861 192.610855,204.376221 
	C164.711655,210.465927 136.664658,210.530060 108.847626,204.257889 
	C84.643448,198.800354 68.081596,184.168869 61.962425,159.712769 
	C54.040676,128.052429 53.797043,96.112587 63.189934,64.749870 
	C69.635193,43.229237 85.028328,29.519779 106.803780,24.445883 
	C119.791924,21.419514 133.292374,19.667459 146.623642,19.237400 
	C171.591980,18.431938 196.604950,18.952696 221.598770,19.058903 
	C225.217850,19.074282 228.905884,19.531576 232.436630,20.335247 
	C240.861221,22.252865 245.637985,28.751663 245.825851,39.014851 
	C246.097198,53.839493 245.976791,68.671303 246.024185,84.000130 
M188.766312,33.122353 
	C188.484451,33.084000 188.202576,33.045647 188.060822,32.246449 
	C185.698990,28.389729 183.476151,28.338781 179.390289,32.029762 
	C178.894379,32.027088 178.398453,32.024414 178.172211,31.232458 
	C177.191483,27.712189 174.556412,26.524305 172.000153,29.423470 
	C168.374557,33.535393 164.522980,38.233570 163.085007,43.334412 
	C159.475327,56.138878 159.811050,69.325912 162.719559,82.357231 
	C165.231644,93.612389 172.398849,101.212463 183.509186,102.515480 
	C195.422531,103.912674 207.704163,103.739174 219.654160,102.543358 
	C225.034500,102.004951 230.221710,97.650261 235.066238,94.388092 
	C237.750412,92.580658 237.934998,89.438362 235.509079,86.732132 
	C223.324570,92.211632 210.906830,93.805443 197.777237,91.696686 
	C189.293579,90.334122 181.427551,87.750214 177.196732,79.466881 
	C171.340942,68.002060 172.226944,55.810368 175.021378,43.530720 
	C175.258987,45.273083 175.659927,47.011353 175.703674,48.758564 
	C175.836609,54.069031 175.539062,59.404911 175.935974,64.691345 
	C177.054489,79.588959 184.359009,87.507111 199.240814,88.984512 
	C206.943314,89.749184 214.835861,89.449844 222.563004,88.751297 
	C226.331863,88.410583 230.109818,86.385094 233.485596,84.433609 
	C234.694916,83.734505 234.734024,81.011131 235.307236,79.211655 
	C233.728897,78.741478 231.984100,77.579346 230.599014,77.912544 
	C221.041748,80.211731 211.535324,80.476112 201.978928,77.439980 
	C201.991699,77.003006 202.004456,76.566025 202.842651,76.115082 
	C213.330383,78.142929 223.724823,78.708748 233.820602,74.473595 
	C233.279984,68.260498 233.235519,68.230637 225.914886,67.952141 
	C225.954346,67.696754 225.993790,67.441376 226.873383,67.047066 
	C228.285904,66.893768 229.698425,66.740471 232.198547,66.469139 
	C229.925629,61.995907 228.293427,58.070889 226.060593,54.523983 
	C219.563660,44.203384 210.823822,36.701736 198.114563,33.891663 
	C197.769623,33.921974 197.424698,33.952286 196.750641,33.368393 
	C194.375671,31.761141 192.006348,29.258430 188.766312,33.122353 
M165.681137,200.105789 
	C172.614166,199.403641 179.638596,199.188736 186.463196,197.908554 
	C207.453003,193.971176 224.005066,184.054794 231.521667,162.726242 
	C232.518372,159.898056 233.482178,157.058273 234.461212,154.223862 
	C232.661819,154.225296 231.767822,154.651428 231.203445,155.345566 
	C223.475449,164.849823 213.124893,169.786560 201.478333,172.419861 
	C180.212006,177.228210 158.749207,177.377899 137.459045,173.376968 
	C109.459541,168.115173 97.455498,153.933548 92.324173,130.403397 
	C87.637886,108.913925 87.874603,87.147957 92.319649,65.623131 
	C94.898903,53.133297 99.467987,41.381744 110.775047,33.724140 
	C111.329674,33.348530 111.551025,32.480824 112.264137,31.271502 
	C110.644058,31.413004 109.672638,31.359095 108.778465,31.596355 
	C89.256111,36.776440 75.657722,48.520687 70.060524,68.171082 
	C62.045700,96.309181 62.549381,124.890625 68.361839,153.241898 
	C72.866646,175.214859 86.229828,190.146896 108.413239,195.892639 
	C126.883797,200.676712 145.708038,202.146957 165.681137,200.105789 
M96.274933,114.014565 
	C97.118576,119.270493 97.698509,124.585136 98.853348,129.771774 
	C102.967606,148.249832 113.848129,160.706665 132.358627,165.610413 
	C151.250763,170.615250 170.517502,170.064865 189.754272,168.212341 
	C199.728104,167.251846 209.251068,164.644760 217.852509,159.135300 
	C227.768600,152.783752 232.804932,143.343796 236.495193,131.122147 
	C234.354950,132.274994 233.273438,132.563278 232.619370,133.255478 
	C226.212723,140.035507 218.243423,144.014297 209.281845,145.943817 
	C190.297272,150.031403 171.234161,150.108841 152.278275,145.866287 
	C135.173660,142.038071 123.992188,131.677567 119.713936,114.479813 
	C115.198357,96.328079 115.154648,78.050446 118.510704,59.682125 
	C120.118851,50.880444 122.931816,42.678909 128.932343,35.873459 
	C130.668457,33.904449 132.765045,32.253269 135.824738,29.406576 
	C133.164474,29.577925 132.074524,29.461035 131.096970,29.739151 
	C116.312462,33.945351 105.970665,43.011852 100.916939,57.700069 
	C94.703850,75.757912 95.485481,94.433723 96.274933,114.014565 
M142.876617,136.759842 
	C146.602707,138.154480 150.226685,140.006973 154.072495,140.864853 
	C171.158844,144.676300 188.421112,144.285049 205.577621,141.645767 
	C215.446136,140.127655 224.347443,136.015472 230.706009,127.772240 
	C234.270889,123.150711 237.064880,118.176109 238.082718,111.677032 
	C233.043671,115.112000 229.196732,118.769447 224.620285,120.673744 
	C205.404099,128.669739 185.532242,127.971443 165.781693,123.172585 
	C152.905853,120.044098 145.229767,111.201912 141.626724,98.412468 
	C138.123825,85.978416 138.396149,73.346230 139.296051,60.776512 
	C140.135254,49.054695 142.973877,37.755936 152.564331,29.533852 
	C152.829727,29.306324 152.708405,28.627729 152.863312,27.398539 
	C150.676147,28.011942 148.804153,28.394903 147.035889,29.055557 
	C133.950714,33.944424 126.859352,43.958729 124.035812,57.106205 
	C120.609222,73.061684 120.716591,89.240120 123.072510,105.301575 
	C124.969002,118.230881 129.951721,129.659500 142.876617,136.759842 
M200.500183,107.836914 
	C196.685059,107.587852 192.843430,107.544022 189.059296,107.055161 
	C169.918884,104.582451 161.947998,98.096199 158.695816,79.197525 
	C155.721619,61.914421 155.076462,44.387218 167.024567,29.290819 
	C167.169067,29.108252 166.980774,28.662289 166.848862,27.369518 
	C165.016815,27.723991 163.134460,27.740732 161.565033,28.449974 
	C153.284729,32.191940 148.262665,38.790123 145.952148,47.420216 
	C142.013535,62.131359 142.088287,76.992188 144.607376,91.929840 
	C147.248840,107.593063 155.990417,117.366768 171.791336,120.408791 
	C185.473709,123.042938 199.230576,122.916504 212.877853,120.537773 
	C223.470505,118.691475 232.240051,113.650925 236.888474,103.297676 
	C237.520203,101.890694 237.403564,100.147713 237.633423,98.560295 
	C237.177841,98.383018 236.722260,98.205750 236.266678,98.028473 
	C226.181366,106.911736 213.875473,107.570282 200.500183,107.836914 
z"/>
<path fill="#090909" opacity="1.000000" stroke="none" 
	d="
M140.403290,277.842285 
	C138.974945,277.682648 137.972885,277.617279 137.017410,277.371063 
	C129.999496,275.562775 128.925568,272.766510 132.997650,266.998077 
	C128.108780,260.953003 128.347321,259.236389 135.023926,253.798584 
	C133.708862,251.831085 131.984482,249.988037 131.104248,247.804657 
	C127.580467,239.063919 132.511642,231.270248 142.204254,229.928589 
	C143.026566,229.814789 143.856537,229.688446 144.683365,229.685577 
	C150.656357,229.664856 156.629456,229.674469 162.996445,229.674469 
	C162.996445,232.195099 162.996445,234.574173 162.996445,237.324646 
	C161.694687,237.546280 160.291046,237.785263 158.518936,238.086990 
	C160.948105,243.546219 161.605911,249.466782 156.223816,252.740021 
	C151.964142,255.330673 146.352951,255.699097 140.615173,257.250885 
	C141.751617,257.893951 142.825333,258.967041 143.981537,259.064880 
	C146.951859,259.316162 149.958847,259.143280 152.951065,259.124176 
	C156.785950,259.099701 160.420776,259.541077 161.665146,264.000610 
	C162.970428,268.678375 160.979721,274.251312 156.404587,275.657349 
	C151.462006,277.176331 146.055359,277.185211 140.403290,277.842285 
M142.520081,244.273605 
	C143.847565,245.840179 145.175049,247.406769 146.502518,248.973343 
	C147.309845,247.326920 148.876617,245.605499 148.723419,244.053909 
	C148.549866,242.296158 146.834457,240.690659 145.789444,239.018951 
	C144.696838,240.514114 143.604248,242.009262 142.520081,244.273605 
M147.158035,267.201538 
	C144.805191,267.369080 142.452362,267.536652 139.507309,267.746368 
	C142.467529,271.536987 147.575943,271.992584 152.627579,269.150116 
	C150.712784,268.347229 149.355362,267.778046 147.158035,267.201538 
z"/>
<path fill="#070707" opacity="1.000000" stroke="none" 
	d="
M54.237793,251.625168 
	C54.354065,248.695923 54.240376,246.170654 54.651215,243.733810 
	C56.734577,231.376511 61.340763,228.225098 73.766312,230.850418 
	C73.766312,226.732269 73.766312,222.685410 73.766312,218.392105 
	C77.949997,218.392105 81.697937,218.392105 86.214294,218.392105 
	C86.214294,223.149887 86.214714,227.898087 86.214195,232.646301 
	C86.213478,239.306168 86.062546,245.971512 86.306679,252.622375 
	C86.375381,254.493866 87.972794,256.277344 88.206863,258.182556 
	C88.516487,260.702698 88.542778,263.397705 87.918762,265.818542 
	C87.692230,266.697327 85.166443,267.615875 83.825409,267.445923 
	C80.850266,267.068787 77.960938,266.014557 73.970512,264.952759 
	C72.914772,265.418152 70.639801,266.869965 68.164154,267.422241 
	C62.352329,268.718811 57.497601,265.440491 55.798092,259.368896 
	C55.129055,256.978699 54.757015,254.505386 54.237793,251.625168 
M68.255913,240.699615 
	C67.916588,244.955841 67.284546,249.214630 67.321640,253.467575 
	C67.357521,257.581909 69.748703,258.910309 74.038254,257.325500 
	C74.038254,252.996948 73.908600,248.691116 74.076653,244.396942 
	C74.228592,240.514542 72.576996,239.203918 68.255913,240.699615 
z"/>
<path fill="#090909" opacity="1.000000" stroke="none" 
	d="
M124.894760,239.061676 
	C124.894951,248.348816 124.894951,257.145660 124.894951,267.330963 
	C120.255386,266.546356 116.103165,265.770630 111.923637,265.192169 
	C110.952431,265.057800 109.822731,265.442108 108.876884,265.846893 
	C98.422920,270.320679 92.967667,266.727448 92.954094,255.301682 
	C92.944618,247.326416 92.952263,239.351120 92.952263,230.994263 
	C97.099556,230.994263 101.164543,230.994263 105.853806,230.994263 
	C105.853806,237.499756 105.852432,243.922699 105.855064,250.345642 
	C105.855545,251.509338 105.471176,252.907303 105.980186,253.779312 
	C106.664589,254.951782 108.044319,255.718369 109.125580,256.659180 
	C110.116707,255.471909 111.920273,254.314713 111.965553,253.092407 
	C112.235321,245.809250 112.098961,238.511047 112.098961,230.819916 
	C116.344635,230.819916 120.367958,230.819916 124.894577,230.819916 
	C124.894577,233.675003 124.894577,236.123199 124.894760,239.061676 
z"/>
<path fill="#090909" opacity="1.000000" stroke="none" 
	d="
M186.124252,229.855881 
	C192.987473,231.454437 194.651901,233.386734 194.665543,239.708771 
	C194.674149,243.700775 194.189316,247.716736 194.502426,251.676361 
	C194.682541,253.953934 196.370239,256.085205 196.726028,258.383484 
	C197.092331,260.749725 197.054367,263.350983 196.400894,265.621338 
	C196.123734,266.584259 193.730850,267.650452 192.466064,267.474304 
	C189.487778,267.059448 186.609604,265.925751 182.851791,264.840546 
	C175.004456,268.729431 168.655640,268.460449 166.640015,263.067078 
	C165.558945,260.174377 165.661392,256.648621 165.962677,253.478195 
	C166.341339,249.493408 169.527222,247.684586 173.065094,246.807968 
	C176.230179,246.023712 179.483688,245.596344 182.783798,244.995941 
	C182.244705,240.224274 179.223450,240.553314 176.433792,240.851013 
	C173.684143,241.144424 170.968048,241.752182 168.436752,242.187683 
	C168.082428,241.778290 167.916992,241.673462 167.883987,241.536652 
	C165.697189,232.477325 165.956909,231.854492 174.791565,230.334488 
	C178.360062,229.720535 182.074493,229.954681 186.124252,229.855881 
M176.930054,257.271667 
	C179.068878,259.915314 181.393234,260.486023 182.730988,256.884094 
	C183.212769,255.586960 182.003464,252.258011 181.276505,252.166962 
	C178.612015,251.833237 176.526016,253.180801 176.930054,257.271667 
z"/>
<path fill="#080808" opacity="1.000000" stroke="none" 
	d="
M235.125397,230.908325 
	C239.594345,230.588806 243.679642,230.175781 247.766632,230.158615 
	C249.138031,230.152832 250.615982,230.982651 251.870300,231.725815 
	C258.605408,235.716187 260.691284,252.598541 255.569626,261.173798 
	C251.758392,267.554932 240.009430,269.769531 232.692764,265.500366 
	C228.575592,263.098053 226.974838,259.181671 226.408798,254.764725 
	C225.089676,244.471405 226.111115,234.273712 235.125397,230.908325 
M245.340851,254.780609 
	C245.313309,250.667297 245.514099,246.531204 245.107117,242.455780 
	C244.997314,241.356079 243.051849,239.674469 241.934753,239.663116 
	C240.888977,239.652512 238.998825,241.437866 238.914139,242.542755 
	C238.587402,246.805359 238.652756,251.126938 239.003571,255.391022 
	C239.085373,256.385284 240.860947,257.961761 241.862595,257.965912 
	C242.975098,257.970520 244.093796,256.482422 245.340851,254.780609 
z"/>
<path fill="#080808" opacity="1.000000" stroke="none" 
	d="
M43.643665,266.780701 
	C42.901356,266.843048 42.561264,266.826813 42.239498,266.895874 
	C20.289705,271.608459 16.096405,253.319901 20.214951,239.523285 
	C22.471355,231.964615 30.520123,228.316483 40.266239,229.965256 
	C47.157276,231.131027 50.480045,235.756683 50.371174,244.159271 
	C50.341270,246.467270 50.115234,248.772720 49.933804,251.849182 
	C46.831699,251.849182 43.921009,251.849182 41.010319,251.849182 
	C38.051071,251.849182 35.091824,251.849182 32.107525,251.849182 
	C32.606567,258.543304 35.664444,259.539673 47.528297,257.046783 
	C47.874397,259.765320 48.215141,262.441772 48.593914,265.416962 
	C46.853077,265.925049 45.453758,266.333496 43.643665,266.780701 
M31.580441,242.884583 
	C32.002884,249.189529 36.292706,244.782928 39.093784,245.425705 
	C38.589310,243.354797 37.914577,241.079178 36.482021,240.398499 
	C35.424641,239.896103 33.378742,241.474136 31.580441,242.884583 
z"/>
<path fill="#080808" opacity="1.000000" stroke="none" 
	d="
M203.686447,254.068451 
	C203.612366,251.161423 203.475372,248.663574 203.532104,246.170120 
	C203.592758,243.504578 205.010727,240.741058 200.694199,239.380203 
	C199.610291,239.038483 199.903595,234.328323 199.524567,231.312149 
	C201.264786,231.111603 202.501160,230.969116 203.853394,230.813278 
	C204.213776,228.599548 204.554932,226.503784 204.935593,224.165436 
	C208.645050,224.165436 212.206497,224.165436 216.136963,224.165436 
	C215.486359,229.127701 216.495331,232.660446 223.226608,230.693268 
	C222.995590,233.968018 222.804916,236.670929 222.599030,239.589417 
	C220.443787,239.759766 218.664307,239.900421 216.106125,240.102631 
	C216.106125,245.145370 215.727066,250.260254 216.365463,255.244812 
	C216.530655,256.534515 219.885239,257.415741 222.545807,258.920746 
	C222.450714,260.728027 222.305145,263.494476 222.163681,266.182770 
	C206.696014,269.691833 202.702438,267.080963 203.686447,254.068451 
z"/>
<path fill="#0C0C0C" opacity="1.000000" stroke="none" 
	d="
M263.097778,246.004074 
	C263.121277,241.516907 263.293457,237.521362 263.108704,233.542419 
	C262.966095,230.470108 264.027771,229.593582 266.930634,230.499527 
	C268.011993,230.837006 269.232239,230.801971 270.389984,230.809662 
	C275.088257,230.840851 279.786835,230.822632 285.185303,230.822632 
	C285.050171,233.561951 284.869598,237.222549 284.677948,241.108109 
	C283.050873,241.228897 281.919861,241.417786 280.797211,241.376953 
	C277.115143,241.242996 275.817657,243.141190 275.869324,246.610992 
	C275.965637,253.080643 275.897003,259.552765 275.897003,266.419495 
	C271.606293,266.419495 267.586792,266.419495 263.092804,266.419495 
	C263.092804,259.709930 263.092804,253.106400 263.097778,246.004074 
z"/>
<path fill="#FDFCFF" opacity="1.000000" stroke="none" 
	d="
M165.212128,200.142731 
	C145.708038,202.146957 126.883797,200.676712 108.413239,195.892639 
	C86.229828,190.146896 72.866646,175.214859 68.361839,153.241898 
	C62.549381,124.890625 62.045700,96.309181 70.060524,68.171082 
	C75.657722,48.520687 89.256111,36.776440 108.778465,31.596355 
	C109.672638,31.359095 110.644058,31.413004 112.264137,31.271502 
	C111.551025,32.480824 111.329674,33.348530 110.775047,33.724140 
	C99.467987,41.381744 94.898903,53.133297 92.319649,65.623131 
	C87.874603,87.147957 87.637886,108.913925 92.324173,130.403397 
	C97.455498,153.933548 109.459541,168.115173 137.459045,173.376968 
	C158.749207,177.377899 180.212006,177.228210 201.478333,172.419861 
	C213.124893,169.786560 223.475449,164.849823 231.203445,155.345566 
	C231.767822,154.651428 232.661819,154.225296 234.461212,154.223862 
	C233.482178,157.058273 232.518372,159.898056 231.521667,162.726242 
	C224.005066,184.054794 207.453003,193.971176 186.463196,197.908554 
	C179.638596,199.188736 172.614166,199.403641 165.212128,200.142731 
z"/>
<path fill="#FDFBFF" opacity="1.000000" stroke="none" 
	d="
M96.228699,113.553772 
	C95.485481,94.433723 94.703850,75.757912 100.916939,57.700069 
	C105.970665,43.011852 116.312462,33.945351 131.096970,29.739151 
	C132.074524,29.461035 133.164474,29.577925 135.824738,29.406576 
	C132.765045,32.253269 130.668457,33.904449 128.932343,35.873459 
	C122.931816,42.678909 120.118851,50.880444 118.510704,59.682125 
	C115.154648,78.050446 115.198357,96.328079 119.713936,114.479813 
	C123.992188,131.677567 135.173660,142.038071 152.278275,145.866287 
	C171.234161,150.108841 190.297272,150.031403 209.281845,145.943817 
	C218.243423,144.014297 226.212723,140.035507 232.619370,133.255478 
	C233.273438,132.563278 234.354950,132.274994 236.495193,131.122147 
	C232.804932,143.343796 227.768600,152.783752 217.852509,159.135300 
	C209.251068,164.644760 199.728104,167.251846 189.754272,168.212341 
	C170.517502,170.064865 151.250763,170.615250 132.358627,165.610413 
	C113.848129,160.706665 102.967606,148.249832 98.853348,129.771774 
	C97.698509,124.585136 97.118576,119.270493 96.228699,113.553772 
z"/>
<path fill="#FCFAFF" opacity="1.000000" stroke="none" 
	d="
M142.559753,136.564590 
	C129.951721,129.659500 124.969002,118.230881 123.072510,105.301575 
	C120.716591,89.240120 120.609222,73.061684 124.035812,57.106205 
	C126.859352,43.958729 133.950714,33.944424 147.035889,29.055557 
	C148.804153,28.394903 150.676147,28.011942 152.863312,27.398539 
	C152.708405,28.627729 152.829727,29.306324 152.564331,29.533852 
	C142.973877,37.755936 140.135254,49.054695 139.296051,60.776512 
	C138.396149,73.346230 138.123825,85.978416 141.626724,98.412468 
	C145.229767,111.201912 152.905853,120.044098 165.781693,123.172585 
	C185.532242,127.971443 205.404099,128.669739 224.620285,120.673744 
	C229.196732,118.769447 233.043671,115.112000 238.082718,111.677032 
	C237.064880,118.176109 234.270889,123.150711 230.706009,127.772240 
	C224.347443,136.015472 215.446136,140.127655 205.577621,141.645767 
	C188.421112,144.285049 171.158844,144.676300 154.072495,140.864853 
	C150.226685,140.006973 146.602707,138.154480 142.559753,136.564590 
z"/>
<path fill="#FCFAFF" opacity="1.000000" stroke="none" 
	d="
M200.981888,107.836594 
	C213.875473,107.570282 226.181366,106.911736 236.266678,98.028473 
	C236.722260,98.205750 237.177841,98.383018 237.633423,98.560295 
	C237.403564,100.147713 237.520203,101.890694 236.888474,103.297676 
	C232.240051,113.650925 223.470505,118.691475 212.877853,120.537773 
	C199.230576,122.916504 185.473709,123.042938 171.791336,120.408791 
	C155.990417,117.366768 147.248840,107.593063 144.607376,91.929840 
	C142.088287,76.992188 142.013535,62.131359 145.952148,47.420216 
	C148.262665,38.790123 153.284729,32.191940 161.565033,28.449974 
	C163.134460,27.740732 165.016815,27.723991 166.848862,27.369518 
	C166.980774,28.662289 167.169067,29.108252 167.024567,29.290819 
	C155.076462,44.387218 155.721619,61.914421 158.695816,79.197525 
	C161.947998,98.096199 169.918884,104.582451 189.059296,107.055161 
	C192.843430,107.544022 196.685059,107.587852 200.981888,107.836594 
z"/>
<path fill="#FBF9FE" opacity="1.000000" stroke="none" 
	d="
M173.935120,43.597168 
	C172.226944,55.810368 171.340942,68.002060 177.196732,79.466881 
	C181.427551,87.750214 189.293579,90.334122 197.777237,91.696686 
	C210.906830,93.805443 223.324570,92.211632 235.509079,86.732132 
	C237.934998,89.438362 237.750412,92.580658 235.066238,94.388092 
	C230.221710,97.650261 225.034500,102.004951 219.654160,102.543358 
	C207.704163,103.739174 195.422531,103.912674 183.509186,102.515480 
	C172.398849,101.212463 165.231644,93.612389 162.719559,82.357231 
	C159.811050,69.325912 159.475327,56.138878 163.085007,43.334412 
	C164.522980,38.233570 168.374557,33.535393 172.000153,29.423470 
	C174.556412,26.524305 177.191483,27.712189 177.969284,31.725742 
	C177.766357,32.219025 177.889542,32.424858 177.538757,32.643559 
	C177.124878,34.419834 177.061768,35.977413 176.984589,37.778156 
	C176.995087,38.507271 177.019653,38.993214 176.643356,39.120724 
	C175.478180,40.348984 174.713882,41.935680 173.946991,43.554615 
	C173.944412,43.586853 173.935120,43.597168 173.935120,43.597168 
z"/>
<path fill="#F9F6FE" opacity="1.000000" stroke="none" 
	d="
M177.044235,39.479160 
	C177.019653,38.993214 176.995087,38.507271 177.302673,37.615353 
	C178.061783,36.129742 178.488724,35.050106 179.140259,33.784294 
	C179.620956,33.086998 179.877060,32.575874 180.133163,32.064747 
	C183.476151,28.338781 185.698990,28.389729 187.713989,32.774384 
	C186.958710,34.208965 186.550262,35.115616 186.083603,36.435966 
	C186.004791,37.405922 185.984207,37.962181 185.983490,38.761738 
	C185.988708,39.492496 185.974075,39.979961 185.908295,40.967934 
	C185.869385,47.119816 185.773590,52.775322 185.989944,58.418865 
	C186.030579,59.478893 187.317703,60.491138 188.035583,61.683037 
	C188.045715,62.051105 188.039169,62.261234 187.625778,62.477722 
	C187.493835,62.996483 187.758026,63.508541 188.006454,64.014374 
	C187.990692,64.008156 187.996857,63.974834 187.731262,64.345505 
	C187.993286,65.508514 188.520889,66.300842 189.048492,67.093178 
	C189.198471,66.723030 189.348465,66.352890 189.766617,66.046257 
	C190.358871,66.896477 190.682953,67.683189 190.580536,68.563889 
	C191.135971,75.511810 196.789200,76.513290 201.978546,78.095947 
	C211.535324,80.476112 221.041748,80.211731 230.599014,77.912544 
	C231.984100,77.579346 233.728897,78.741478 235.307236,79.211655 
	C234.734024,81.011131 234.694916,83.734505 233.485596,84.433609 
	C230.109818,86.385094 226.331863,88.410583 222.563004,88.751297 
	C214.835861,89.449844 206.943314,89.749184 199.240814,88.984512 
	C184.359009,87.507111 177.054489,79.588959 175.935974,64.691345 
	C175.539062,59.404911 175.836609,54.069031 175.703674,48.758564 
	C175.659927,47.011353 175.258987,45.273083 174.478241,43.563942 
	C173.935120,43.597168 173.944412,43.586853 174.349457,43.847797 
	C175.517731,42.565548 176.280991,41.022354 177.044235,39.479160 
z"/>
<path fill="#FDFBFF" opacity="1.000000" stroke="none" 
	d="
M198.632996,33.863586 
	C210.823822,36.701736 219.563660,44.203384 226.060593,54.523983 
	C228.293427,58.070889 229.925629,61.995907 232.198547,66.469139 
	C229.698425,66.740471 228.285904,66.893768 226.034851,67.039604 
	C221.725327,66.998825 218.244232,67.123245 214.785263,66.902000 
	C205.196381,66.288673 199.931519,62.072155 198.657455,52.609249 
	C197.831024,46.470863 198.586380,40.119514 198.632996,33.863586 
z"/>
<path fill="#FBF8FE" opacity="1.000000" stroke="none" 
	d="
M191.007019,68.469902 
	C190.682953,67.683189 190.358871,66.896477 189.872559,65.616425 
	C189.139175,64.740334 188.568008,64.357582 187.996857,63.974831 
	C187.996857,63.974834 187.990692,64.008156 188.321289,63.626877 
	C188.441895,62.987404 188.231903,62.729214 188.021912,62.471027 
	C188.039169,62.261234 188.045715,62.051105 188.262009,61.334156 
	C188.262817,55.064415 188.130112,49.295341 187.744919,43.543175 
	C187.673904,42.482826 186.580795,41.490921 185.959442,40.467422 
	C185.974075,39.979961 185.988708,39.492496 186.324799,39.065449 
	C187.364182,38.093822 188.082123,37.061787 188.947388,35.706985 
	C189.261703,34.697273 189.428696,34.010326 189.595703,33.323380 
	C192.006348,29.258430 194.375671,31.761141 196.831482,34.090569 
	C196.925629,41.673985 196.381424,48.595634 197.116440,55.378666 
	C197.787796,61.574276 201.865372,66.339767 208.013184,67.595970 
	C213.736908,68.765518 219.776917,68.387138 225.677689,68.690193 
	C233.235519,68.230637 233.279984,68.260498 233.820602,74.473595 
	C223.724823,78.708748 213.330383,78.142929 202.115402,75.957855 
	C197.927780,73.357063 194.467392,70.913483 191.007019,68.469902 
z"/>
<path fill="#8030EE" opacity="1.000000" stroke="none" 
	d="
M225.796295,68.321167 
	C219.776917,68.387138 213.736908,68.765518 208.013184,67.595970 
	C201.865372,66.339767 197.787796,61.574276 197.116440,55.378666 
	C196.381424,48.595634 196.925629,41.673985 196.996048,34.397675 
	C197.424698,33.952286 197.769623,33.921974 198.373779,33.877625 
	C198.586380,40.119514 197.831024,46.470863 198.657455,52.609249 
	C199.931519,62.072155 205.196381,66.288673 214.785263,66.902000 
	C218.244232,67.123245 221.725327,66.998825 225.614777,67.109070 
	C225.993790,67.441376 225.954346,67.696754 225.796295,68.321167 
z"/>
<path fill="#7C2AED" opacity="1.000000" stroke="none" 
	d="
M190.580536,68.563889 
	C194.467392,70.913483 197.927780,73.357063 201.702682,75.964844 
	C202.004456,76.566025 201.991699,77.003006 201.978729,77.767960 
	C196.789200,76.513290 191.135971,75.511810 190.580536,68.563889 
z"/>
<path fill="#7C2AED" opacity="1.000000" stroke="none" 
	d="
M189.181000,33.222866 
	C189.428696,34.010326 189.261703,34.697273 188.615051,35.699661 
	C187.470856,36.017487 186.806335,36.019875 186.141815,36.022270 
	C186.550262,35.115616 186.958710,34.208965 187.643921,33.154800 
	C188.202576,33.045647 188.484451,33.084000 189.181000,33.222866 
z"/>
<path fill="#7D2CED" opacity="1.000000" stroke="none" 
	d="
M179.761719,32.047256 
	C179.877060,32.575874 179.620956,33.086998 178.891479,33.586746 
	C178.241928,33.191864 178.065735,32.808361 177.889542,32.424858 
	C177.889542,32.424858 177.766357,32.219025 177.834442,32.120384 
	C178.398453,32.024414 178.894379,32.027088 179.761719,32.047256 
z"/>
<path fill="#EDEDED" opacity="1.000000" stroke="none" 
	d="
M142.515869,243.889008 
	C143.604248,242.009262 144.696838,240.514114 145.789444,239.018951 
	C146.834457,240.690659 148.549866,242.296158 148.723419,244.053909 
	C148.876617,245.605499 147.309845,247.326920 146.502518,248.973343 
	C145.175049,247.406769 143.847565,245.840179 142.515869,243.889008 
z"/>
<path fill="#D8D8D8" opacity="1.000000" stroke="none" 
	d="
M147.577988,267.205200 
	C149.355362,267.778046 150.712784,268.347229 152.627579,269.150116 
	C147.575943,271.992584 142.467529,271.536987 139.507309,267.746368 
	C142.452362,267.536652 144.805191,267.369080 147.577988,267.205200 
z"/>
<path fill="#F0F0F0" opacity="1.000000" stroke="none" 
	d="
M68.585060,240.416321 
	C72.576996,239.203918 74.228592,240.514542 74.076653,244.396942 
	C73.908600,248.691116 74.038254,252.996948 74.038254,257.325500 
	C69.748703,258.910309 67.357521,257.581909 67.321640,253.467575 
	C67.284546,249.214630 67.916588,244.955841 68.585060,240.416321 
z"/>
<path fill="#EEEEEE" opacity="1.000000" stroke="none" 
	d="
M176.832489,256.856049 
	C176.526016,253.180801 178.612015,251.833237 181.276505,252.166962 
	C182.003464,252.258011 183.212769,255.586960 182.730988,256.884094 
	C181.393234,260.486023 179.068878,259.915314 176.832489,256.856049 
z"/>
<path fill="#EFEFEF" opacity="1.000000" stroke="none" 
	d="
M245.275330,255.212402 
	C244.093796,256.482422 242.975098,257.970520 241.862595,257.965912 
	C240.860947,257.961761 239.085373,256.385284 239.003571,255.391022 
	C238.652756,251.126938 238.587402,246.805359 238.914139,242.542755 
	C238.998825,241.437866 240.888977,239.652512 241.934753,239.663116 
	C243.051849,239.674469 244.997314,241.356079 245.107117,242.455780 
	C245.514099,246.531204 245.313309,250.667297 245.275330,255.212402 
z"/>
<path fill="#EEEEEE" opacity="1.000000" stroke="none" 
	d="
M31.676857,242.504913 
	C33.378742,241.474136 35.424641,239.896103 36.482021,240.398499 
	C37.914577,241.079178 38.589310,243.354797 39.093784,245.425705 
	C36.292706,244.782928 32.002884,249.189529 31.676857,242.504913 
z"/>
<path fill="#6A0CEA" opacity="1.000000" stroke="none" 
	d="
M177.538757,32.643559 
	C178.065735,32.808361 178.241928,33.191864 178.666901,33.772919 
	C178.488724,35.050106 178.061783,36.129742 177.316742,37.372185 
	C177.061768,35.977413 177.124878,34.419834 177.538757,32.643559 
z"/>
<path fill="#6A0CEA" opacity="1.000000" stroke="none" 
	d="
M176.643356,39.120724 
	C176.280991,41.022354 175.517731,42.565548 174.352036,43.815559 
	C174.713882,41.935680 175.478180,40.348984 176.643356,39.120724 
z"/>
<path fill="#6A0CEA" opacity="1.000000" stroke="none" 
	d="
M185.908295,40.967934 
	C186.580795,41.490921 187.673904,42.482826 187.744919,43.543175 
	C188.130112,49.295341 188.262817,55.064415 188.256058,61.176552 
	C187.317703,60.491138 186.030579,59.478893 185.989944,58.418865 
	C185.773590,52.775322 185.869385,47.119816 185.908295,40.967934 
z"/>
<path fill="#6A0CEA" opacity="1.000000" stroke="none" 
	d="
M186.083603,36.435966 
	C186.806335,36.019875 187.470856,36.017487 188.467712,36.022423 
	C188.082123,37.061787 187.364182,38.093822 186.304932,38.822151 
	C185.984207,37.962181 186.004791,37.405922 186.083603,36.435966 
z"/>
<path fill="#6A0CEA" opacity="1.000000" stroke="none" 
	d="
M187.731262,64.345505 
	C188.568008,64.357582 189.139175,64.740334 189.604385,65.552917 
	C189.348465,66.352890 189.198471,66.723030 189.048492,67.093178 
	C188.520889,66.300842 187.993286,65.508514 187.731262,64.345505 
z"/>
<path fill="#6A0CEA" opacity="1.000000" stroke="none" 
	d="
M187.625778,62.477722 
	C188.231903,62.729214 188.441895,62.987404 188.337067,63.633099 
	C187.758026,63.508541 187.493835,62.996483 187.625778,62.477722 
z"/>
</svg>